<svg width="194" height="240" viewBox="0 0 194 240" fill="none" xmlns="http://www.w3.org/2000/svg">
<path d="M193.965 57.9229L133.621 0H0V239.966H193.965V57.9229Z" fill="#EDEADA"/>
<path d="M133.621 0V57.9229H193.965L133.621 0Z" fill="#CEC9AE"/>
<path d="M34.4702 77.8299C32.8561 76.2805 30.2668 76.2805 28.6527 77.7976C27.0049 79.3469 27.0049 81.8323 28.619 83.3816L38.4382 92.8712C39.2116 93.6136 40.254 94.0332 41.3637 94.0332C42.4398 94.0332 43.4823 93.6136 44.2557 92.8712L74.1503 64.3378C75.7644 62.7885 75.7644 60.3031 74.1839 58.7538C72.5698 57.2045 69.9805 57.2045 68.3664 58.7538L59.3207 67.3719C54.512 62.5948 47.8202 59.8512 40.7921 59.8512C26.5678 59.8512 15 70.9547 15 84.6082C15 98.2616 26.5678 109.365 40.7921 109.365C52.259 109.365 62.179 102.296 65.5081 91.7738C66.1806 89.6758 64.9364 87.4809 62.7507 86.8353C60.5649 86.2221 58.2782 87.3841 57.6057 89.4821C55.3863 96.5186 48.4591 101.457 40.7921 101.457C31.1074 101.457 23.2387 93.9041 23.2387 84.6082C23.2387 75.3122 31.1074 67.7592 40.7921 67.7592C45.6008 67.7592 50.1741 69.6959 53.4695 72.9882L41.3974 84.5113L34.4702 77.8299Z" fill="#F4B844"/>
<path d="M40.7921 112.657C26.5678 112.657 15 123.761 15 137.414C15 151.068 26.5678 162.171 40.7921 162.171C55.0164 162.171 66.5842 151.068 66.5842 137.414C66.5842 123.761 55.0164 112.657 40.7921 112.657ZM40.7921 154.263C31.1074 154.263 23.2387 146.71 23.2387 137.414C23.2387 128.118 31.1074 120.565 40.7921 120.565C50.4767 120.565 58.3455 128.118 58.3455 137.414C58.3455 146.71 50.4767 154.263 40.7921 154.263Z" fill="#F4B844"/>
<path d="M66.5842 190.253C66.5842 176.599 55.0164 165.496 40.7921 165.496C26.5678 165.496 15 176.599 15 190.253C15 203.906 26.5678 215.01 40.7921 215.01C55.0164 215.01 66.5842 203.906 66.5842 190.253ZM40.7921 207.134C31.1074 207.134 23.2387 199.581 23.2387 190.285C23.2387 180.989 31.1074 173.436 40.7921 173.436C50.4767 173.436 58.3455 180.989 58.3455 190.285C58.3455 199.581 50.4767 207.134 40.7921 207.134Z" fill="#F4B844"/>
<path d="M159.866 133.444H79.7323C77.4457 133.444 75.5962 135.219 75.5962 137.414C75.5962 139.609 77.4457 141.384 79.7323 141.384H159.866C162.153 141.384 164.002 139.609 164.002 137.414C164.002 135.219 162.153 133.444 159.866 133.444Z" fill="#FFD0A1"/>
<path d="M159.866 80.6703H79.7323C77.4457 80.6703 75.5962 82.4456 75.5962 84.6405C75.5962 86.8354 77.4457 88.6107 79.7323 88.6107H159.866C162.153 88.6107 164.002 86.8354 164.002 84.6405C164.002 82.4456 162.153 80.6703 159.866 80.6703Z" fill="#FFD0A1"/>
<path d="M159.866 186.315H79.7323C77.4457 186.315 75.5962 188.09 75.5962 190.285C75.5962 192.48 77.4457 194.255 79.7323 194.255H159.866C162.153 194.255 164.002 192.48 164.002 190.285C164.002 188.058 162.153 186.315 159.866 186.315Z" fill="#FFD0A1"/>
</svg>
