<svg width="250" height="250" viewBox="0 0 250 250" fill="none" xmlns="http://www.w3.org/2000/svg">
<path d="M207.627 84.7457L144.068 21.1864H46.6101V233.051H207.627V84.7457Z" fill="#EDEADA"/>
<path d="M133.275 204.58C158.615 204.58 179.157 184.039 179.157 158.699C179.157 133.36 158.615 112.818 133.275 112.818C107.936 112.818 87.394 133.36 87.394 158.699C87.394 184.039 107.936 204.58 133.275 204.58Z" fill="white" stroke="#7383BF" stroke-width="2" stroke-miterlimit="10" stroke-linecap="round"/>
<path d="M166.288 191.712L220.339 245.763" stroke="#7383BF" stroke-width="2" stroke-miterlimit="10" stroke-linecap="round"/>
<path d="M134.004 148.305H108.581C106.237 148.305 104.343 146.411 104.343 144.068C104.343 141.725 106.237 139.831 108.581 139.831H134.004C136.348 139.831 138.242 141.725 138.242 144.068C138.242 146.411 136.348 148.305 134.004 148.305Z" fill="#FFD0A1"/>
<path d="M159.428 173.729H108.581C106.237 173.729 104.343 171.835 104.343 169.491C104.343 167.148 106.237 165.254 108.581 165.254H159.428C161.771 165.254 163.665 167.148 163.665 169.491C163.665 171.835 161.771 173.729 159.428 173.729Z" fill="#FFD0A1"/>
<path d="M46.6103 21.1864H144.068L186.441 63.5593V0H25.4238V211.864H46.6103V21.1864Z" fill="#E2DBBF"/>
<path d="M206.407 84.7458H144.068V22.4069C144.068 21.9577 144.614 21.7289 144.932 22.0509L206.763 83.8814C207.081 84.1992 206.856 84.7458 206.407 84.7458Z" fill="#CEC9AE"/>
</svg>
