<svg width="250" height="250" viewBox="0 0 250 250" fill="none" xmlns="http://www.w3.org/2000/svg">
<path d="M221.983 60.3448L161.638 0H28.0172V250H221.983V60.3448Z" fill="#EDEADA"/>
<path d="M161.638 0V60.3448H221.983L161.638 0Z" fill="#CEC9AE"/>
<path d="M144.396 146.552H71.1206C68.7413 146.552 66.8103 148.478 66.8103 150.862C66.8103 153.246 68.7413 155.172 71.1206 155.172H144.396C146.776 155.172 148.707 153.246 148.707 150.862C148.707 148.478 146.776 146.552 144.396 146.552Z" fill="#FFD0A1"/>
<path d="M191.81 129.31C191.81 126.927 189.879 125 187.5 125H157.328C154.948 125 153.017 126.927 153.017 129.31C153.017 131.694 154.948 133.621 157.328 133.621H187.5C189.879 133.621 191.81 131.694 191.81 129.31Z" fill="#FFD0A1"/>
<path d="M92.6724 133.621H135.776C138.155 133.621 140.086 131.694 140.086 129.31C140.086 126.927 138.155 125 135.776 125H92.6724C90.2931 125 88.3621 126.927 88.3621 129.31C88.3621 131.694 90.2931 133.621 92.6724 133.621Z" fill="#FFD0A1"/>
<path d="M71.1206 133.621C72.2844 133.621 73.362 133.147 74.181 132.371C74.9568 131.552 75.431 130.431 75.431 129.31C75.431 128.185 74.9568 127.065 74.181 126.25C72.5862 124.655 69.612 124.698 68.0603 126.25C67.2844 127.065 66.8103 128.185 66.8103 129.31C66.8103 130.431 67.2844 131.552 68.0603 132.328C68.8362 133.147 69.9568 133.621 71.1206 133.621Z" fill="#FFD0A1"/>
<path d="M162.888 147.802C162.112 148.616 161.638 149.694 161.638 150.862C161.638 152.026 162.069 153.103 162.888 153.922C163.707 154.698 164.828 155.172 165.948 155.172C167.069 155.172 168.19 154.698 169.009 153.922C169.828 153.103 170.259 152.026 170.259 150.862C170.259 149.737 169.784 148.616 169.009 147.802C167.371 146.207 164.526 146.207 162.888 147.802Z" fill="#FFD0A1"/>
<path d="M184.44 147.802C183.664 148.616 183.19 149.694 183.19 150.862C183.19 152.026 183.621 153.103 184.44 153.922C185.259 154.698 186.379 155.172 187.5 155.172C188.621 155.172 189.741 154.698 190.56 153.879C191.379 153.06 191.81 151.983 191.81 150.862C191.81 149.737 191.336 148.616 190.56 147.802C188.922 146.207 186.078 146.207 184.44 147.802Z" fill="#FFD0A1"/>
<path d="M94.9354 168.819C85.4914 173.737 82.3147 183.134 81.1595 192.88C79.375 191.384 77.5906 189.892 75.8104 188.397C71.5819 184.854 65.4483 190.918 69.7156 194.496C73.7457 197.871 77.7802 201.25 81.8104 204.63C84.6638 207.022 89.0345 205.539 89.1681 201.582C89.4828 192.242 89.9311 181.138 99.2888 176.267C104.22 173.698 99.8578 166.259 94.9354 168.819Z" fill="#7383BF"/>
<path d="M161.047 190.733C159.224 188.233 157.345 186.151 154.013 185.901C147.733 185.427 136.953 194.414 132.496 186.47C131.366 184.453 128.573 183.711 126.599 184.923C120.496 188.668 112.517 194.056 106.099 187.078C102.328 182.979 96.2458 189.091 100.004 193.173C108.069 201.94 118.47 199.255 127.621 194.289C129.552 196.362 131.862 197.78 134.935 198.888C138.854 200.302 152.552 193.63 153.612 195.082C156.849 199.522 164.336 195.229 161.047 190.733Z" fill="#7383BF"/>
<path d="M112.47 90.9139L101.647 85.3838C100.91 85.0044 100.444 84.2458 100.444 83.4139V80.0993C106 77.707 109.194 73.0562 110.746 67.2415C113.086 66.5174 114.81 64.3493 114.81 61.776V58.901C114.81 56.6984 113.543 54.8019 111.716 53.8363C110.448 43.0303 103.306 38.6596 91.8233 38.6596C91.2802 38.6596 90.7457 38.6812 90.2242 38.7243C86.3233 39.0346 82.375 38.2976 79.1293 36.1122C77.7802 35.2027 76.6423 34.2372 75.8449 33.2243C75.4828 32.7631 74.75 33.0562 74.819 33.6424C74.9354 34.6467 75.1035 35.8191 75.3578 37.1036C76.3061 41.8751 75.7414 41.1769 73.8966 45.6769C72.875 48.1682 72.2199 50.9269 71.9138 53.8536C70.0949 54.8234 68.8362 56.7157 68.8362 58.9053V61.7803C68.8362 64.3536 70.5604 66.5217 72.9009 67.2458C74.4526 73.0605 77.6466 77.7113 83.2026 80.1036V83.3967C83.2026 84.2372 82.7242 85.0088 81.9699 85.3794L70.875 90.845C68.9957 91.8708 67.6337 93.5131 66.8147 95.4096C73.8664 100.448 82.4871 103.448 91.819 103.448C101.116 103.448 109.707 100.474 116.75 95.4657C115.871 93.5432 114.431 91.8967 112.47 90.9139Z" fill="#CEC9AE"/>
</svg>
