<svg width="250" height="250" viewBox="0 0 250 250" fill="none" xmlns="http://www.w3.org/2000/svg">
<g clip-path="url(#clip0)">
<path d="M191.618 5.84418C223.861 5.84418 249.999 31.9822 249.999 64.2255C249.999 96.4688 223.861 122.607 191.618 122.607C189.765 122.607 187.934 122.522 186.129 122.349C156.148 119.518 133.239 94.3448 133.239 64.2277C133.239 62.3027 133.333 60.4018 133.519 58.5272C136.448 28.6354 161.582 5.84418 191.618 5.84418Z" fill="#9FA6AF"/>
<path d="M191.618 37.7966C215.507 37.7966 234.82 64.2277 234.82 64.2277C234.82 64.2277 215.507 90.6545 191.618 90.6545C167.729 90.6545 148.42 64.2277 148.42 64.2277C148.42 64.2277 167.735 37.7966 191.618 37.7966Z" fill="#FFD0A1"/>
<path d="M191.618 46.8461C201.216 46.8439 208.999 54.6248 208.999 64.2234C209.002 73.822 201.223 81.6028 191.624 81.605C182.026 81.6072 174.243 73.8264 174.241 64.2278C174.238 54.6291 182.019 46.8461 191.618 46.8461Z" fill="#F4B844"/>
<path d="M186.13 122.349L186.125 122.438V244.646H0V58.5228H63.8325V104.672L93.0593 94.4126L122.29 104.672V58.5228H133.475L133.519 58.5272C133.335 60.4041 133.241 62.3028 133.239 64.2277C133.239 94.3448 156.148 119.518 186.13 122.349Z" fill="#EDEADA"/>
<path d="M122.29 58.5228V104.672L93.0593 94.4126L63.8325 104.672V58.5228H122.29Z" fill="#FFD0A1"/>
<path d="M106.908 154.275H48.4503C45.9762 154.275 43.9703 152.269 43.9703 149.795C43.9703 147.321 45.9762 145.315 48.4503 145.315H106.908C109.382 145.315 111.388 147.321 111.388 149.795C111.388 152.269 109.382 154.275 106.908 154.275Z" fill="#FFD0A1"/>
<path d="M137.675 185.042H48.4503C45.9762 185.042 43.9703 183.036 43.9703 180.562C43.9703 178.088 45.9762 176.082 48.4503 176.082H137.675C140.149 176.082 142.155 178.088 142.155 180.562C142.155 183.036 140.149 185.042 137.675 185.042Z" fill="#FFD0A1"/>
</g>
<defs>
<clipPath id="clip0">
<rect width="250" height="250" fill="white"/>
</clipPath>
</defs>
</svg>
