<svg width="200" height="200" viewBox="0 0 200 200" fill="none" xmlns="http://www.w3.org/2000/svg">
<path d="M178.05 130.508L177.712 130.847C174.322 129.491 170.932 130.508 168.22 133.559L161.44 140.339L127.203 174.576L123.813 177.966V198.305H22.1185C14.661 198.305 8.55933 192.203 8.55933 184.746V15.2542C8.55933 7.79673 14.661 1.69504 22.1185 1.69504H130.593V35.5932C130.593 43.0507 136.695 49.1524 144.152 49.1524H178.05V130.508Z" fill="#EDEADA"/>
<path d="M178.05 49.1524H144.152C136.695 49.1524 130.593 43.0507 130.593 35.5932V1.69504L178.05 49.1524Z" fill="#AAB1BA"/>
<path d="M171.61 150.508L137.373 184.746L127.203 174.576L161.44 140.339L171.61 150.508ZM181.779 160.678L147.542 194.915L137.373 184.746L171.61 150.508L181.779 160.678Z" fill="#352961"/>
<path d="M42.4575 83.0509H62.7965V62.7119H42.4575V83.0509ZM42.4575 164.407H62.7965V144.068H42.4575V164.407Z" fill="#FFD0A1"/>
<path d="M188.559 140.339C192.627 144.407 192.627 149.83 188.559 153.898L181.779 160.678L171.61 150.508L161.44 140.339L168.22 133.559C170.932 130.847 174.661 129.83 178.051 130.847C179.407 131.186 180.763 132.203 181.78 133.559L188.559 140.339Z" fill="#FFD0A1"/>
<path d="M147.542 194.915L144.152 198.305H123.813V177.966L127.203 174.576L137.373 184.746L147.542 194.915Z" fill="#E4F2DE"/>
<path d="M144.153 200H123.814C122.797 200 122.119 199.322 122.119 198.305V177.966C122.119 177.627 122.457 176.949 122.457 176.61L166.864 132.203C169.237 129.831 171.949 128.814 174.661 128.814C177.712 128.814 180.424 130.169 182.797 132.203L189.576 138.983C194.322 143.729 194.322 150.17 189.576 154.915L145.169 199.322C145.169 199.661 144.491 200 144.153 200ZM125.509 196.61H143.475L145.17 194.915L127.204 176.949L125.509 178.644V196.61ZM139.746 184.746L147.543 192.543L179.407 160.678L171.61 152.881L139.746 184.746ZM129.576 174.576L137.373 182.373L169.237 150.509L161.441 142.712L129.576 174.576ZM163.813 140.339L181.78 158.305L187.203 152.882C188.898 151.186 189.915 149.153 189.915 147.458C189.915 145.424 188.898 143.39 187.203 141.695L180.423 134.915C177.034 131.526 172.627 131.526 169.237 134.915L163.813 140.339ZM110.254 200H22.1187C13.6443 200 6.8645 193.22 6.8645 184.746V15.2542C6.8645 6.77979 13.6443 0 22.1187 0H130.593C130.932 0 131.61 0.33885 131.949 0.33885L165.847 34.237C166.525 34.9151 166.525 35.932 165.847 36.6097C165.169 37.2874 164.152 37.2878 163.475 36.6097L129.915 3.05085H22.1187C15.6782 3.05085 10.2542 8.47444 10.2542 14.9154V184.407C10.2542 190.847 15.6778 196.271 22.1187 196.271H110.254C111.271 196.271 111.949 196.95 111.949 197.966C111.949 198.983 111.271 200 110.254 200ZM110.254 166.101H83.1356C82.1187 166.101 81.4406 165.423 81.4406 164.406C81.4406 163.389 82.1187 162.711 83.1356 162.711H110.254C111.271 162.711 111.949 163.389 111.949 164.406C111.949 165.424 111.271 166.101 110.254 166.101ZM62.7967 166.101H42.4577C41.4407 166.101 40.7626 165.423 40.7626 164.406V144.067C40.7626 143.05 41.4407 142.372 42.4577 142.372H62.7967C63.8136 142.372 64.4917 143.05 64.4917 144.067V164.406C64.4917 165.424 63.8136 166.101 62.7967 166.101ZM44.1527 162.712H61.102V145.762H44.1527V162.712ZM130.593 145.762H123.814C122.797 145.762 122.119 145.084 122.119 144.067C122.119 143.05 122.797 142.372 123.814 142.372H130.593C131.61 142.372 132.288 143.05 132.288 144.067C132.288 145.084 131.61 145.762 130.593 145.762ZM110.254 145.762H83.1356C82.1187 145.762 81.4406 145.084 81.4406 144.067C81.4406 143.05 82.1187 142.372 83.1356 142.372H110.254C111.271 142.372 111.949 143.05 111.949 144.067C111.949 145.084 111.271 145.762 110.254 145.762ZM49.2375 125.424C48.8986 125.424 48.2205 125.085 47.8817 125.085L41.1019 118.305C40.4238 117.627 40.4238 116.61 41.1019 115.932C41.78 115.254 42.7969 115.254 43.4746 115.932L48.8982 121.356L61.4405 102.712C62.1186 102.034 63.1355 101.695 63.8132 102.373C64.4913 103.051 64.8302 104.068 64.1521 104.746L50.5929 125.085C50.2544 125.085 49.9152 125.424 49.2375 125.424ZM144.153 125.424H123.814C122.797 125.424 122.119 124.745 122.119 123.728C122.119 122.712 122.797 122.033 123.814 122.033H144.153C145.169 122.033 145.848 122.712 145.848 123.728C145.848 124.746 145.169 125.424 144.153 125.424ZM110.254 125.424H83.1356C82.1187 125.424 81.4406 124.745 81.4406 123.728C81.4406 122.712 82.1187 122.033 83.1356 122.033H110.254C111.271 122.033 111.949 122.712 111.949 123.728C111.949 124.746 111.271 125.424 110.254 125.424ZM178.051 118.644C177.034 118.644 176.356 117.966 176.356 116.949V50.8474H144.153C135.678 50.8474 128.898 44.0676 128.898 35.5932V18.6439C128.898 17.627 129.576 16.9489 130.593 16.9489C131.61 16.9489 132.288 17.627 132.288 18.6439V35.5932C132.288 42.0337 137.712 47.4577 144.153 47.4577H178.051C179.068 47.4577 179.746 48.1358 179.746 49.1528V116.949C179.746 117.966 179.068 118.644 178.051 118.644ZM137.373 105.085H103.475C102.458 105.085 101.78 104.406 101.78 103.389C101.78 102.373 102.458 101.694 103.475 101.694H137.373C138.39 101.694 139.068 102.373 139.068 103.389C139.068 104.407 138.39 105.085 137.373 105.085ZM89.9154 105.085H83.1356C82.1187 105.085 81.4406 104.406 81.4406 103.389C81.4406 102.373 82.1187 101.694 83.1356 101.694H89.9154C90.9324 101.694 91.6105 102.373 91.6105 103.389C91.6101 104.407 90.9324 105.085 89.9154 105.085ZM144.153 84.7456H117.034C116.017 84.7456 115.339 84.0675 115.339 83.0505C115.339 82.0336 116.017 81.3555 117.034 81.3555H144.153C145.169 81.3555 145.848 82.0336 145.848 83.0505C145.848 84.0679 145.169 84.7456 144.153 84.7456ZM103.475 84.7456H83.1356C82.1187 84.7456 81.4406 84.0675 81.4406 83.0505C81.4406 82.0336 82.1187 81.3555 83.1356 81.3555H103.475C104.492 81.3555 105.17 82.0336 105.17 83.0505C105.17 84.0679 104.492 84.7456 103.475 84.7456ZM62.7967 84.7456H42.4577C41.4407 84.7456 40.7626 84.0675 40.7626 83.0505V62.7116C40.7626 61.6946 41.4407 61.0165 42.4577 61.0165H62.7967C63.8136 61.0165 64.4917 61.6946 64.4917 62.7116V83.0505C64.4917 84.0679 63.8136 84.7456 62.7967 84.7456ZM44.1527 81.3559H61.102V64.4066H44.1527V81.3559ZM117.034 64.4066H83.1356C82.1187 64.4066 81.4406 63.7285 81.4406 62.7116C81.4406 61.6946 82.1187 61.0165 83.1356 61.0165H117.034C118.051 61.0165 118.729 61.6946 118.729 62.7116C118.729 63.7289 118.051 64.4066 117.034 64.4066Z" fill="#51565F"/>
</svg>
