<svg width="343" height="249" viewBox="0 0 343 249" fill="none" xmlns="http://www.w3.org/2000/svg">
<path d="M321.718 16.1558C325.414 19.8536 331.402 19.8536 335.093 16.1558C338.789 12.4579 338.789 6.4663 335.093 2.77341C331.397 -0.924471 325.409 -0.924471 321.718 2.77341C318.027 6.4663 318.027 12.4629 321.718 16.1558Z" fill="url(#paint0_linear)"/>
<path d="M292.825 85.2213L280.519 97.5343C276.823 101.232 270.834 101.232 267.144 97.5343C263.448 93.8364 263.448 87.8448 267.144 84.1519L307.808 43.4652C311.504 39.7673 311.504 33.7757 307.808 30.0829C304.112 26.385 298.124 26.385 294.433 30.0829L93.7719 230.843C90.076 234.541 90.076 240.532 93.7719 244.225C97.4678 247.923 103.456 247.923 107.147 244.225L135.505 215.852C139.201 212.154 145.19 212.154 148.88 215.852C152.576 219.549 152.576 225.541 148.88 229.234L127.21 250.916C123.514 254.614 123.514 260.606 127.21 264.299C130.906 267.997 136.894 267.997 140.585 264.299L162.256 242.616C165.951 238.918 171.94 238.918 175.631 242.616C179.327 246.314 185.315 246.314 189.006 242.616L192.217 239.403C195.913 235.705 201.901 235.705 205.592 239.403C209.288 243.101 209.288 249.092 205.592 252.785L164.928 293.472C161.232 297.17 161.232 303.162 164.928 306.854C168.623 310.552 174.612 310.552 178.303 306.854L363.981 121.076C367.677 117.378 367.677 111.386 363.981 107.693C360.285 103.996 354.296 103.996 350.606 107.693L340.976 117.328C337.28 121.026 331.292 121.026 327.601 117.328C323.905 113.63 323.905 107.638 327.601 103.946L375.223 56.2979C378.919 52.6 378.919 46.6084 375.223 42.9155C371.527 39.2176 365.539 39.2176 361.848 42.9155L319.575 85.2113C315.879 88.9092 309.891 88.9092 306.2 85.2113C302.509 81.5234 296.516 81.5234 292.825 85.2213Z" fill="url(#paint1_linear)"/>
<path d="M321.718 16.1558C325.414 19.8536 331.402 19.8536 335.093 16.1558C338.789 12.4579 338.789 6.4663 335.093 2.77341C331.397 -0.924471 325.409 -0.924471 321.718 2.77341C318.027 6.4663 318.027 12.4629 321.718 16.1558Z" fill="url(#paint2_linear)"/>
<path d="M267.139 84.1519L279.944 71.3392L307.803 43.4652C311.499 39.7673 311.499 33.7757 307.803 30.0829C304.107 26.385 298.119 26.385 294.428 30.0829L93.7719 230.843C90.076 234.541 90.076 240.532 93.7719 244.225C97.4678 247.923 103.456 247.923 107.147 244.225L124.817 226.545L135.51 215.847L267.139 84.1519Z" fill="url(#paint3_linear)"/>
<g opacity="0.19">
<path opacity="0.19" d="M267.139 97.5342C263.443 93.8363 263.443 87.8447 267.139 84.1519L135.505 215.851C139.201 212.154 145.19 212.154 148.88 215.851C149.974 216.946 150.733 218.24 151.178 219.614L271.344 99.9678C269.811 99.553 268.352 98.7435 267.139 97.5342Z" fill="url(#paint4_linear)"/>
</g>
<path d="M192.227 239.408L327.606 103.955L337.87 93.6863L375.233 56.3027C378.929 52.6048 378.929 46.6133 375.233 42.9204C371.537 39.2225 365.549 39.2225 361.858 42.9204L319.585 85.2162C315.889 88.9141 309.901 88.9141 306.21 85.2162C302.514 81.5183 296.526 81.5183 292.835 85.2162L280.529 97.5291C278.046 100.013 274.525 100.822 272.113 99.2182L151.947 218.865C152.262 222.887 151.497 226.63 148.895 229.234L127.225 250.916C123.529 254.614 123.529 260.606 127.225 264.299C130.92 267.997 136.909 267.997 140.6 264.299L162.27 242.616C165.966 238.918 171.955 238.918 175.646 242.616C179.341 246.314 185.33 246.314 189.021 242.616L192.227 239.408Z" fill="url(#paint5_linear)"/>
<path d="M205.602 252.795L164.937 293.482C161.242 297.18 161.242 303.171 164.937 306.864C168.633 310.562 174.622 310.562 178.313 306.864L363.991 121.086C367.686 117.388 367.686 111.396 363.991 107.703C360.295 104.005 354.306 104.005 350.615 107.703L340.986 117.338C338.449 119.876 334.833 120.671 331.617 119.721L208.324 245.155C208.599 247.883 207.695 250.707 205.602 252.795Z" fill="url(#paint6_linear)"/>
<g opacity="0.1">
<path opacity="0.1" d="M327.606 117.343C323.91 113.645 323.91 107.653 327.606 103.96L192.227 239.408C195.923 235.71 201.911 235.71 205.602 239.408C207.205 241.012 208.114 243.056 208.324 245.15L331.617 119.731C330.148 119.297 328.765 118.502 327.606 117.343Z" fill="url(#paint7_linear)"/>
</g>
<path d="M172.147 108.156C175.843 104.458 175.843 98.4663 172.147 94.7734C168.451 91.0755 162.463 91.0755 158.772 94.7734C155.076 98.4713 155.076 104.463 158.772 108.156C162.463 111.854 168.451 111.854 172.147 108.156Z" fill="url(#paint8_linear)"/>
<g clip-path="url(#clip0)">
<path d="M124.949 126.925L2.92458 248.949C-0.978114 252.852 -0.978114 259.17 2.92458 263.073C6.82727 266.976 13.1457 266.976 17.0483 263.073L139.073 141.048C142.976 137.146 142.976 130.827 139.073 126.925C135.176 123.022 128.852 123.022 124.949 126.925Z" fill="url(#paint9_linear)"/>
</g>
<defs>
<linearGradient id="paint0_linear" x1="318.949" y1="9.46428" x2="337.867" y2="9.46428" gradientUnits="userSpaceOnUse">
<stop stop-color="#3FA9F5"/>
<stop offset="0.00446968" stop-color="#3FA9F5"/>
<stop offset="1" stop-color="#FF7BAC"/>
</linearGradient>
<linearGradient id="paint1_linear" x1="91" y1="168.472" x2="377.999" y2="168.472" gradientUnits="userSpaceOnUse">
<stop stop-color="#3FA9F5"/>
<stop offset="0.00446968" stop-color="#3FA9F5"/>
<stop offset="1" stop-color="#FF7BAC"/>
</linearGradient>
<linearGradient id="paint2_linear" x1="318.949" y1="9.46428" x2="337.867" y2="9.46428" gradientUnits="userSpaceOnUse">
<stop stop-color="#3FA9F5"/>
<stop offset="0.00446968" stop-color="#3FA9F5"/>
<stop offset="1" stop-color="#FF7BAC"/>
</linearGradient>
<linearGradient id="paint3_linear" x1="91" y1="137.153" x2="310.577" y2="137.153" gradientUnits="userSpaceOnUse">
<stop stop-color="#3FA9F5"/>
<stop offset="0.00446968" stop-color="#3FA9F5"/>
<stop offset="1" stop-color="#FF7BAC"/>
</linearGradient>
<linearGradient id="paint4_linear" x1="203.972" y1="152.652" x2="220.689" y2="169.359" gradientUnits="userSpaceOnUse">
<stop offset="0.1865" stop-opacity="0.06"/>
<stop offset="1" stop-opacity="0.9707"/>
</linearGradient>
<linearGradient id="paint5_linear" x1="124.443" y1="153.615" x2="377.999" y2="153.615" gradientUnits="userSpaceOnUse">
<stop stop-color="#3FA9F5"/>
<stop offset="0.00446968" stop-color="#3FA9F5"/>
<stop offset="1" stop-color="#FF7BAC"/>
</linearGradient>
<linearGradient id="paint6_linear" x1="162.167" y1="207.287" x2="366.762" y2="207.287" gradientUnits="userSpaceOnUse">
<stop stop-color="#3FA9F5"/>
<stop offset="0.00446968" stop-color="#3FA9F5"/>
<stop offset="1" stop-color="#FF7BAC"/>
</linearGradient>
<linearGradient id="paint7_linear" x1="258.768" y1="170.536" x2="274.491" y2="186.25" gradientUnits="userSpaceOnUse">
<stop stop-opacity="0.9707"/>
<stop offset="0.5587" stop-opacity="0.01"/>
</linearGradient>
<linearGradient id="paint8_linear" x1="155.999" y1="101.465" x2="174.917" y2="101.465" gradientUnits="userSpaceOnUse">
<stop stop-color="#3FA9F5"/>
<stop offset="0.00446968" stop-color="#3FA9F5"/>
<stop offset="1" stop-color="#FF7BAC"/>
</linearGradient>
<linearGradient id="paint9_linear" x1="2.90758" y1="263.063" x2="139.057" y2="126.914" gradientUnits="userSpaceOnUse">
<stop stop-color="#3FA9F5"/>
<stop offset="0.00446968" stop-color="#3FA9F5"/>
<stop offset="1" stop-color="#FF7BAC"/>
</linearGradient>
<clipPath id="clip0">
<rect width="142" height="142" fill="white" transform="translate(0 124)"/>
</clipPath>
</defs>
</svg>
