<svg width="200" height="200" viewBox="0 0 200 200" fill="none" xmlns="http://www.w3.org/2000/svg">
<path d="M163.309 116.306H147.603H36.6911C24.2512 116.306 14.1309 126.427 14.1309 138.867C14.1309 151.307 24.2516 161.427 36.6911 161.427H49.9145L48.2079 162.813C46.2426 164.41 45.3583 166.939 45.8997 169.412C46.4411 171.885 48.3008 173.813 50.7536 174.443L51.6399 174.67L47.2657 191.713C46.7294 193.803 47.9887 195.931 50.0782 196.468L63.363 199.877C63.6829 199.96 64.0091 200 64.3341 200C65.0278 200 65.7157 199.815 66.3228 199.456C67.2146 198.928 67.8603 198.068 68.1177 197.065L72.4923 180.022L73.3786 180.249C75.8314 180.879 78.3896 180.085 80.0552 178.177C81.7208 176.27 82.163 173.629 81.2099 171.283L77.2032 161.427H147.603H163.309V161.427C175.749 161.427 185.869 151.307 185.869 138.867C185.869 126.427 175.748 116.306 163.309 116.306ZM52.486 171.372L52.4845 171.378C52.4852 171.376 52.4856 171.373 52.4864 171.371C52.486 171.371 52.486 171.372 52.486 171.372ZM71.1392 171.609C69.9982 171.315 68.8114 171.484 67.797 172.084C66.7829 172.684 66.0634 173.642 65.7712 174.782L61.5216 191.34L55.8036 189.872L60.0528 173.316C60.3462 172.175 60.1774 170.988 59.577 169.973C58.9767 168.959 58.0177 168.239 56.8794 167.949L54.9012 167.441L62.3048 161.427L67.1646 157.479L68.7692 161.427L73.1142 172.116L71.1392 171.609ZM143.696 153.614H74.0275L72.4157 149.65C71.9493 148.503 70.9673 147.644 69.7681 147.337C68.5681 147.028 67.2946 147.308 66.3337 148.089L59.5313 153.614H36.6911C28.559 153.614 21.9434 146.998 21.9434 138.867C21.9434 130.735 28.5594 124.119 36.6911 124.119H143.697V153.614H143.696ZM163.309 153.614H151.509V124.119H163.309C171.441 124.119 178.057 130.735 178.057 138.867C178.057 146.998 171.441 153.614 163.309 153.614Z" fill="white"/>
<path d="M165.574 129.918C164.236 128.226 161.779 127.938 160.087 129.276C158.394 130.614 158.108 133.071 159.446 134.763L162.076 138.091L159.446 141.419C158.108 143.111 158.395 145.567 160.087 146.905C160.804 147.473 161.658 147.748 162.507 147.748C163.66 147.747 164.803 147.239 165.574 146.264L170.121 140.514C171.244 139.094 171.244 137.088 170.121 135.668L165.574 129.918Z" fill="white"/>
<path d="M37.8824 140.359C37.9801 140.598 38.1012 140.824 38.2418 141.035C38.3864 141.25 38.5504 141.449 38.7301 141.629C38.9098 141.809 39.109 141.973 39.3239 142.113C39.5348 142.254 39.7614 142.375 39.9957 142.473C40.234 142.57 40.4762 142.644 40.7262 142.695C40.9801 142.746 41.234 142.773 41.4918 142.773C41.7457 142.773 41.9996 142.746 42.2535 142.695C42.5035 142.644 42.7496 142.57 42.984 142.473C43.2184 142.375 43.4489 142.254 43.6598 142.113C43.8707 141.973 44.0739 141.809 44.2535 141.629C44.4332 141.449 44.5973 141.25 44.7379 141.035C44.8785 140.824 44.9996 140.598 45.0973 140.359C45.195 140.125 45.2692 139.879 45.32 139.629C45.3707 139.379 45.3981 139.121 45.3981 138.867C45.3981 138.614 45.3707 138.355 45.32 138.102C45.2692 137.856 45.195 137.61 45.0973 137.371C44.9996 137.137 44.8785 136.91 44.7379 136.699C44.5973 136.484 44.4332 136.285 44.2535 136.105C44.0739 135.926 43.8707 135.762 43.6598 135.617C43.4489 135.476 43.2184 135.355 42.984 135.258C42.7496 135.16 42.5035 135.086 42.2535 135.035C40.984 134.781 39.6364 135.195 38.7301 136.105C38.5504 136.285 38.3864 136.484 38.2418 136.699C38.1012 136.91 37.9801 137.137 37.8824 137.371C37.7848 137.61 37.7106 137.856 37.6598 138.102C37.609 138.355 37.5856 138.614 37.5856 138.867C37.5856 139.121 37.609 139.379 37.6598 139.629C37.7106 139.879 37.7848 140.125 37.8824 140.359Z" fill="white"/>
<path d="M58.6563 140.359C58.7539 140.598 58.875 140.824 59.0156 141.035C59.1602 141.25 59.3242 141.449 59.5039 141.629C59.6836 141.809 59.8828 141.973 60.0977 142.113C60.3086 142.254 60.5352 142.375 60.7695 142.473C61.0078 142.57 61.2539 142.644 61.5 142.695C61.7539 142.746 62.0117 142.773 62.2656 142.773C62.5195 142.773 62.7774 142.746 63.0274 142.695C63.2774 142.644 63.5235 142.57 63.7578 142.473C63.9961 142.375 64.2227 142.254 64.4336 142.113C64.6485 141.973 64.8477 141.809 65.0274 141.629C65.207 141.449 65.3711 141.25 65.5117 141.035C65.6524 140.824 65.7735 140.598 65.8711 140.359C65.9688 140.125 66.043 139.879 66.0938 139.629C66.1445 139.379 66.1719 139.121 66.1719 138.867C66.1719 138.614 66.1445 138.355 66.0938 138.102C66.043 137.856 65.9688 137.61 65.8711 137.371C65.7735 137.137 65.6524 136.91 65.5117 136.7C65.3711 136.484 65.207 136.285 65.0274 136.105C64.1211 135.195 62.7734 134.781 61.5 135.035C61.2539 135.086 61.0078 135.16 60.7695 135.258C60.5352 135.355 60.3086 135.476 60.0977 135.617C59.8828 135.762 59.6836 135.926 59.5039 136.105C59.3242 136.285 59.1602 136.484 59.0156 136.7C58.875 136.91 58.7539 137.137 58.6563 137.371C58.5586 137.61 58.4844 137.856 58.4336 138.102C58.3828 138.355 58.3594 138.614 58.3594 138.867C58.3594 139.121 58.3828 139.379 58.4336 139.629C58.4844 139.879 58.5586 140.125 58.6563 140.359Z" fill="white"/>
<path d="M79.4334 140.359C79.531 140.598 79.6521 140.824 79.7927 141.035C79.9334 141.25 80.0974 141.449 80.2771 141.629C80.4568 141.809 80.656 141.973 80.8709 142.113C81.0818 142.254 81.3084 142.375 81.5466 142.473C81.781 142.57 82.0271 142.644 82.2771 142.695C82.5271 142.746 82.7849 142.773 83.0388 142.773C83.2927 142.773 83.5506 142.746 83.8006 142.695C84.0506 142.644 84.2966 142.57 84.531 142.473C84.7693 142.375 84.9959 142.254 85.2068 142.113C85.4216 141.973 85.6209 141.809 85.8006 141.629C85.9802 141.449 86.1443 141.25 86.2849 141.035C86.4256 140.824 86.5466 140.598 86.6443 140.359C86.742 140.125 86.8162 139.879 86.867 139.629C86.9177 139.379 86.9451 139.121 86.9451 138.867C86.9451 138.614 86.9177 138.355 86.867 138.102C86.8201 137.856 86.742 137.61 86.6443 137.371C86.5466 137.137 86.4256 136.91 86.2849 136.7C86.1443 136.484 85.9802 136.285 85.8006 136.105C84.8943 135.195 83.5427 134.781 82.2771 135.035C82.0271 135.086 81.781 135.16 81.5427 135.258C81.3084 135.355 81.0818 135.476 80.8709 135.617C80.656 135.762 80.4568 135.926 80.2771 136.105C80.0974 136.285 79.9334 136.484 79.7927 136.7C79.6521 136.91 79.531 137.137 79.4334 137.371C79.3357 137.61 79.2576 137.856 79.2107 138.102C79.1599 138.355 79.1326 138.614 79.1326 138.867C79.1326 139.121 79.1599 139.379 79.2107 139.629C79.2576 139.879 79.3357 140.125 79.4334 140.359Z" fill="white"/>
<path d="M100.207 140.359C100.305 140.598 100.426 140.824 100.567 141.035C100.707 141.25 100.871 141.449 101.051 141.629C101.231 141.809 101.43 141.973 101.645 142.113C101.856 142.254 102.082 142.375 102.321 142.473C102.555 142.57 102.801 142.644 103.051 142.695C103.301 142.746 103.559 142.773 103.813 142.773C104.067 142.773 104.324 142.746 104.574 142.695C104.824 142.644 105.071 142.57 105.305 142.473C105.543 142.375 105.77 142.254 105.981 142.113C106.196 141.973 106.395 141.809 106.574 141.629C106.754 141.449 106.918 141.25 107.059 141.035C107.199 140.824 107.321 140.598 107.418 140.359C107.516 140.125 107.594 139.879 107.641 139.629C107.692 139.379 107.719 139.121 107.719 138.867C107.719 138.614 107.692 138.355 107.641 138.102C107.594 137.856 107.516 137.61 107.418 137.371C107.321 137.137 107.199 136.91 107.059 136.7C106.918 136.484 106.754 136.285 106.574 136.105C105.668 135.195 104.317 134.781 103.051 135.035C102.801 135.086 102.555 135.16 102.321 135.258C102.082 135.355 101.856 135.476 101.645 135.617C101.43 135.762 101.231 135.926 101.051 136.105C100.871 136.285 100.707 136.484 100.567 136.7C100.426 136.91 100.305 137.137 100.207 137.371C100.11 137.61 100.035 137.856 99.9846 138.102C99.9338 138.355 99.9065 138.614 99.9065 138.867C99.9065 139.121 99.9338 139.379 99.9846 139.629C100.035 139.879 100.11 140.125 100.207 140.359Z" fill="white"/>
<path d="M120.981 140.359C121.078 140.598 121.199 140.824 121.34 141.035C121.481 141.25 121.645 141.449 121.824 141.629C122.004 141.809 122.203 141.973 122.418 142.113C122.629 142.254 122.856 142.375 123.094 142.473C123.328 142.57 123.574 142.644 123.824 142.695C124.074 142.746 124.332 142.773 124.586 142.773C124.84 142.773 125.098 142.746 125.352 142.695C125.598 142.644 125.844 142.57 126.082 142.473C126.317 142.375 126.543 142.254 126.754 142.113C126.969 141.973 127.168 141.809 127.348 141.629C127.528 141.449 127.692 141.25 127.836 141.035C127.977 140.824 128.098 140.598 128.196 140.359C128.293 140.125 128.367 139.879 128.418 139.629C128.469 139.379 128.492 139.121 128.492 138.867C128.492 138.614 128.469 138.355 128.418 138.102C128.367 137.856 128.293 137.61 128.196 137.371C128.098 137.137 127.977 136.91 127.836 136.7C127.692 136.484 127.528 136.285 127.348 136.105C127.168 135.926 126.969 135.762 126.754 135.617C126.543 135.476 126.317 135.355 126.082 135.258C125.844 135.16 125.598 135.086 125.352 135.035C124.848 134.933 124.328 134.933 123.824 135.035C123.574 135.086 123.328 135.16 123.094 135.258C122.856 135.355 122.629 135.476 122.418 135.617C122.203 135.762 122.004 135.926 121.824 136.105C121.645 136.285 121.481 136.484 121.34 136.7C121.199 136.91 121.078 137.137 120.981 137.371C120.883 137.61 120.809 137.856 120.758 138.102C120.707 138.355 120.68 138.614 120.68 138.867C120.68 139.121 120.707 139.379 120.758 139.629C120.809 139.879 120.883 140.125 120.981 140.359Z" fill="white"/>
<path d="M65.7262 98.7357C65.8219 98.8268 65.9207 98.915 66.0262 98.9967C74.9961 105.937 85.6008 109.864 96.8563 110.45C96.9364 110.455 97.0169 110.458 97.097 110.462C97.454 110.479 97.8122 110.493 98.1704 110.503C98.2759 110.506 98.3813 110.51 98.4868 110.513C98.9286 110.523 99.3708 110.53 99.8145 110.53C100.261 110.53 100.706 110.523 101.15 110.513C101.252 110.511 101.352 110.507 101.454 110.504C101.821 110.493 102.187 110.48 102.552 110.462C102.623 110.458 102.693 110.455 102.763 110.451C114.202 109.859 124.949 105.825 134.002 98.6885C134.126 98.5904 134.243 98.4846 134.353 98.3736C146.979 88.2365 155.078 72.6802 155.078 55.2653C155.079 24.7918 130.287 0 99.8145 0C69.3418 0 44.5492 24.7918 44.5492 55.2649C44.5492 72.8872 52.8398 88.6092 65.7262 98.7357ZM104.889 102.445C104.647 102.471 104.404 102.494 104.161 102.516C103.892 102.54 103.624 102.565 103.354 102.585C102.886 102.619 102.416 102.646 101.945 102.667C101.784 102.674 101.622 102.679 101.461 102.685C100.913 102.703 100.365 102.717 99.8141 102.717C99.2704 102.717 98.729 102.704 98.1884 102.686C98.029 102.68 97.87 102.674 97.7114 102.668C97.2618 102.648 96.8138 102.622 96.3665 102.591C96.1063 102.572 95.847 102.549 95.588 102.526C95.3075 102.502 95.0274 102.475 94.7477 102.446C94.4356 102.413 94.1239 102.378 93.8134 102.339C93.7583 102.332 93.7036 102.324 93.6485 102.317C85.7739 101.29 78.5 98.3271 72.3219 93.9209V86.8486C72.3219 77.5412 76.9446 69.2986 84.0094 64.2786C88.4251 67.7294 93.9739 69.7939 99.9993 69.7939C106.025 69.7939 111.574 67.7298 115.989 64.2786C123.054 69.2986 127.677 77.5412 127.677 86.8486V93.6502H127.677C121.138 98.41 113.343 101.542 104.889 102.445ZM99.8145 7.81251C125.98 7.81251 147.267 29.0993 147.267 55.2649C147.267 67.2267 142.816 78.1673 135.486 86.522C135.383 75.1162 129.872 64.979 121.399 58.5544C124.31 54.3528 126.022 49.2603 126.022 43.7727C126.022 42.4817 125.926 41.1833 125.737 39.9134C125.419 37.7798 123.433 36.3075 121.298 36.6247C119.164 36.9423 117.692 38.929 118.009 41.063C118.142 41.9532 118.209 42.8649 118.209 43.7727C118.209 47.7974 116.894 51.5196 114.675 54.5372C112.874 56.9857 110.477 58.9673 107.699 60.2689C105.359 61.3653 102.75 61.9818 100 61.9818C97.2505 61.9818 94.6423 61.3653 92.3024 60.2689C89.5243 58.9673 87.127 56.9857 85.3262 54.5372C83.1067 51.5196 81.7918 47.7977 81.7918 43.7727C81.7918 33.7325 89.9602 25.5641 100 25.5641C101.383 25.5641 102.759 25.7188 104.092 26.0247C106.197 26.5086 108.29 25.193 108.772 23.0899C109.254 20.9872 107.94 18.8918 105.838 18.4098C103.933 17.9731 101.969 17.7516 100.001 17.7516C85.6528 17.7516 73.9797 29.4247 73.9797 43.7727C73.9797 49.2603 75.6914 54.3528 78.6028 58.5544C70.0477 65.0404 64.511 75.3095 64.511 86.8486V86.9353C56.9617 78.5298 52.3621 67.4251 52.3621 55.2649C52.3617 29.0993 73.6489 7.81251 99.8145 7.81251Z" fill="white"/>
<path d="M112.601 30.2227C112.699 30.4571 112.82 30.6836 112.961 30.8946C113.101 31.1094 113.266 31.3086 113.445 31.4883C113.625 31.6723 113.824 31.8325 114.039 31.9766C114.25 32.1172 114.476 32.2387 114.715 32.3364C114.949 32.434 115.195 32.5079 115.445 32.5586C115.695 32.6094 115.953 32.6329 116.207 32.6329C116.461 32.6329 116.719 32.609 116.969 32.5586C117.219 32.5079 117.465 32.434 117.703 32.3364C117.937 32.2387 118.164 32.1172 118.375 31.9766C118.59 31.8325 118.789 31.6723 118.969 31.4883C119.148 31.3086 119.312 31.1094 119.453 30.8946C119.594 30.6836 119.715 30.4571 119.812 30.2227C119.91 29.9844 119.988 29.7422 120.035 29.4922C120.086 29.2383 120.113 28.9844 120.113 28.7266C120.113 28.4727 120.086 28.2145 120.035 27.9649C119.988 27.7149 119.91 27.4684 119.812 27.2344C119.715 27.0004 119.594 26.7699 119.453 26.559C119.312 26.3438 119.148 26.1446 118.969 25.9649C118.789 25.7852 118.59 25.6211 118.375 25.4805C118.164 25.3403 117.937 25.2188 117.703 25.1211C117.465 25.0235 117.219 24.9496 116.969 24.8989C116.465 24.7969 115.949 24.7969 115.445 24.8989C115.195 24.9496 114.949 25.0235 114.715 25.1211C114.476 25.2188 114.25 25.3403 114.039 25.4805C113.824 25.6211 113.625 25.7852 113.445 25.9649C113.266 26.1446 113.101 26.3438 112.961 26.559C112.82 26.7699 112.699 27.0004 112.601 27.2344C112.504 27.4684 112.43 27.7149 112.379 27.9649C112.328 28.2149 112.301 28.4727 112.301 28.7266C112.301 28.9844 112.328 29.2383 112.379 29.4922C112.43 29.7422 112.504 29.9844 112.601 30.2227Z" fill="white"/>
</svg>
