<svg width="375" height="248" viewBox="0 0 375 248" fill="none" xmlns="http://www.w3.org/2000/svg">
<g clip-path="url(#clip0)">
<path d="M357.949 -7.07542L235.925 114.949C232.022 118.852 232.022 125.171 235.925 129.073C239.827 132.976 246.146 132.976 250.048 129.073L372.073 7.04835C375.976 3.14566 375.976 -3.17273 372.073 -7.07542C368.176 -10.9781 361.852 -10.9781 357.949 -7.07542Z" fill="url(#paint0_linear)"/>
</g>
<path d="M65.9115 243.282C69.6074 239.584 69.6074 233.593 65.9115 229.9C62.2156 226.202 56.2273 226.202 52.5364 229.9C48.8406 233.598 48.8406 239.589 52.5364 243.282C56.2273 246.98 62.2156 246.98 65.9115 243.282Z" fill="url(#paint1_linear)"/>
<path d="M65.9115 229.9C63.4592 226.217 58.5597 225.377 55.0236 228.036L53.5403 229.15C48.7856 232.718 48.3311 239.08 52.5364 243.287L53.8799 244.631C57.3461 248.099 62.5902 247.725 65.5319 243.802C68.5885 239.714 68.7384 234.147 65.9115 229.9Z" fill="url(#paint2_linear)"/>
<path d="M201.825 0.221298L189.519 12.5343C185.823 16.2321 179.834 16.2321 176.144 12.5343C172.448 8.83637 172.448 2.8448 176.144 -0.848091L216.808 -41.5348C220.504 -45.2327 220.504 -51.2243 216.808 -54.9171C213.112 -58.615 207.124 -58.615 203.433 -54.9171L2.77191 145.843C-0.92397 149.541 -0.92397 155.532 2.77191 159.225C6.46779 162.923 12.4561 162.923 16.147 159.225L44.5054 130.852C48.2013 127.154 54.1896 127.154 57.8805 130.852C61.5763 134.549 61.5763 140.541 57.8805 144.234L36.2096 165.916C32.5137 169.614 32.5137 175.606 36.2096 179.299C39.9055 182.997 45.8938 182.997 49.5847 179.299L71.2555 157.616C74.9514 153.918 80.9398 153.918 84.6306 157.616C88.3265 161.314 94.3148 161.314 98.0057 157.616L101.217 154.403C104.913 150.705 110.901 150.705 114.592 154.403C118.288 158.101 118.288 164.092 114.592 167.785L73.9276 208.472C70.2317 212.17 70.2317 218.162 73.9276 221.854C77.6235 225.552 83.6118 225.552 87.3027 221.854L272.981 36.0758C276.677 32.3779 276.677 26.3863 272.981 22.6934C269.285 18.9956 263.296 18.9956 259.606 22.6934L249.976 32.3279C246.28 36.0258 240.292 36.0258 236.601 32.3279C232.905 28.63 232.905 22.6385 236.601 18.9456L284.223 -28.7021C287.919 -32.4 287.919 -38.3916 284.223 -42.0845C280.527 -45.7824 274.539 -45.7824 270.848 -42.0845L228.575 0.211308C224.879 3.90919 218.891 3.90919 215.2 0.211308C211.509 -3.47658 205.516 -3.47659 201.825 0.221298Z" fill="url(#paint3_linear)"/>
<path d="M176.139 -0.848087L188.944 -13.6608L216.803 -41.5348C220.499 -45.2327 220.499 -51.2243 216.803 -54.9171C213.107 -58.615 207.119 -58.615 203.428 -54.9171L2.77191 145.843C-0.92397 149.541 -0.92397 155.532 2.77191 159.225C6.46779 162.923 12.4561 162.923 16.147 159.225L33.8173 141.545L44.5104 130.847L176.139 -0.848087Z" fill="url(#paint4_linear)"/>
<g opacity="0.19">
<path opacity="0.19" d="M176.139 12.5342C172.443 8.83631 172.443 2.84474 176.139 -0.848145L44.5054 130.851C48.2013 127.154 54.1896 127.154 57.8805 130.851C58.9742 131.946 59.7334 133.24 60.1779 134.614L180.344 14.9678C178.811 14.553 177.352 13.7435 176.139 12.5342Z" fill="url(#paint5_linear)"/>
</g>
<path d="M101.227 154.408L236.606 18.9555L246.87 8.68634L284.233 -28.6973C287.929 -32.3952 287.929 -38.3867 284.233 -42.0796C280.537 -45.7775 274.549 -45.7775 270.858 -42.0796L228.585 0.216187C224.889 3.91407 218.901 3.91407 215.21 0.216187C211.514 -3.4817 205.526 -3.4817 201.835 0.216187L189.529 12.5291C187.046 15.0127 183.525 15.8223 181.113 14.2182L60.947 133.865C61.2616 137.887 60.4975 141.63 57.8954 144.234L36.2245 165.916C32.5287 169.614 32.5287 175.606 36.2245 179.299C39.9204 182.997 45.9087 182.997 49.5996 179.299L71.2705 157.616C74.9664 153.918 80.9547 153.918 84.6456 157.616C88.3414 161.314 94.3298 161.314 98.0207 157.616L101.227 154.408Z" fill="url(#paint6_linear)"/>
<path d="M114.602 167.795L73.9376 208.482C70.2417 212.18 70.2417 218.171 73.9376 221.864C77.6334 225.562 83.6218 225.562 87.3127 221.864L272.991 36.0857C276.687 32.3878 276.687 26.3962 272.991 22.7033C269.295 19.0055 263.306 19.0055 259.616 22.7033L249.986 32.3378C247.449 34.8764 243.833 35.6709 240.617 34.7215L117.324 160.155C117.599 162.883 116.695 165.707 114.602 167.795Z" fill="url(#paint7_linear)"/>
<g opacity="0.1">
<path opacity="0.1" d="M236.606 32.3428C232.91 28.6449 232.91 22.6533 236.606 18.9604L101.227 154.408C104.923 150.71 110.911 150.71 114.602 154.408C116.205 156.012 117.114 158.056 117.324 160.15L240.617 34.7314C239.148 34.2967 237.765 33.5021 236.606 32.3428Z" fill="url(#paint8_linear)"/>
</g>
<path d="M211.147 174.156C214.843 170.458 214.843 164.466 211.147 160.773C207.451 157.076 201.463 157.076 197.772 160.773C194.076 164.471 194.076 170.463 197.772 174.156C201.463 177.854 207.451 177.854 211.147 174.156Z" fill="url(#paint9_linear)"/>
<defs>
<linearGradient id="paint0_linear" x1="235.908" y1="129.063" x2="372.057" y2="-7.08603" gradientUnits="userSpaceOnUse">
<stop stop-color="#3FA9F5"/>
<stop offset="0.00446968" stop-color="#3FA9F5"/>
<stop offset="1" stop-color="#FF7BAC"/>
</linearGradient>
<linearGradient id="paint1_linear" x1="49.7634" y1="236.591" x2="68.6818" y2="236.591" gradientUnits="userSpaceOnUse">
<stop stop-color="#3FA9F5"/>
<stop offset="0.00446968" stop-color="#3FA9F5"/>
<stop offset="1" stop-color="#FF7BAC"/>
</linearGradient>
<linearGradient id="paint2_linear" x1="49.6535" y1="236.742" x2="67.9318" y2="236.742" gradientUnits="userSpaceOnUse">
<stop stop-color="#3FA9F5"/>
<stop offset="0.00446968" stop-color="#3FA9F5"/>
<stop offset="1" stop-color="#FF7BAC"/>
</linearGradient>
<linearGradient id="paint3_linear" x1="2.56691e-06" y1="83.4724" x2="286.999" y2="83.4724" gradientUnits="userSpaceOnUse">
<stop stop-color="#3FA9F5"/>
<stop offset="0.00446968" stop-color="#3FA9F5"/>
<stop offset="1" stop-color="#FF7BAC"/>
</linearGradient>
<linearGradient id="paint4_linear" x1="0" y1="52.1526" x2="219.577" y2="52.1526" gradientUnits="userSpaceOnUse">
<stop stop-color="#3FA9F5"/>
<stop offset="0.00446968" stop-color="#3FA9F5"/>
<stop offset="1" stop-color="#FF7BAC"/>
</linearGradient>
<linearGradient id="paint5_linear" x1="112.972" y1="67.6517" x2="129.689" y2="84.3591" gradientUnits="userSpaceOnUse">
<stop offset="0.1865" stop-opacity="0.06"/>
<stop offset="1" stop-opacity="0.9707"/>
</linearGradient>
<linearGradient id="paint6_linear" x1="33.4431" y1="68.6155" x2="286.999" y2="68.6155" gradientUnits="userSpaceOnUse">
<stop stop-color="#3FA9F5"/>
<stop offset="0.00446968" stop-color="#3FA9F5"/>
<stop offset="1" stop-color="#FF7BAC"/>
</linearGradient>
<linearGradient id="paint7_linear" x1="71.167" y1="122.287" x2="275.762" y2="122.287" gradientUnits="userSpaceOnUse">
<stop stop-color="#3FA9F5"/>
<stop offset="0.00446968" stop-color="#3FA9F5"/>
<stop offset="1" stop-color="#FF7BAC"/>
</linearGradient>
<linearGradient id="paint8_linear" x1="167.768" y1="85.536" x2="183.491" y2="101.25" gradientUnits="userSpaceOnUse">
<stop stop-opacity="0.9707"/>
<stop offset="0.5587" stop-opacity="0.01"/>
</linearGradient>
<linearGradient id="paint9_linear" x1="194.999" y1="167.465" x2="213.917" y2="167.465" gradientUnits="userSpaceOnUse">
<stop stop-color="#3FA9F5"/>
<stop offset="0.00446968" stop-color="#3FA9F5"/>
<stop offset="1" stop-color="#FF7BAC"/>
</linearGradient>
<clipPath id="clip0">
<rect width="142" height="142" fill="white" transform="translate(233 -10)"/>
</clipPath>
</defs>
</svg>
