<svg width="162" height="167" viewBox="0 0 162 167" fill="none" xmlns="http://www.w3.org/2000/svg">
<path d="M157.508 88.1703L157.508 88.1705C159.497 90.1541 159.497 93.3662 157.509 95.3497L90.1887 162.509C89.2326 163.463 87.9347 164 86.5797 164H62.0999C59.2767 164 56.9999 161.718 56.9999 158.919V145.453V142.453H53.9999H8.09999C5.27672 142.453 3 140.171 3 137.372V8.08065C3 5.28159 5.27672 3 8.09999 3H110.7C113.523 3 115.8 5.28159 115.8 8.08065V66.5059V73.7363L120.919 68.6297L125.811 63.749C127.803 61.7613 131.037 61.7616 133.028 63.7488L133.028 63.749L157.508 88.1703ZM16.2 13.1613H13.2V16.1613V129.291V132.291H16.2H55.9115H57.3017L58.2004 131.23C58.3281 131.079 58.4147 130.984 58.488 130.911L58.4915 130.907L104.719 84.791L105.6 83.9119V82.6672V16.1613V13.1613H102.6H16.2ZM83.2247 153.839H84.4652L85.3435 152.963L144.564 93.8839L146.693 91.76L144.564 89.6362L131.539 76.6425L129.42 74.5288L127.301 76.6425L68.0811 135.721L67.1999 136.6V137.844V150.839V153.839H70.1999H83.2247Z" stroke="white" stroke-width="6"/>
</svg>
