<svg width="62" height="98" viewBox="0 0 62 98" fill="none" xmlns="http://www.w3.org/2000/svg">
<path d="M54.3009 1.95659L1.27201 57.3623C-0.424002 59.1344 -0.424002 62.0033 1.27201 63.7753C2.96802 65.5473 5.71382 65.5473 7.40983 63.7753L60.4387 8.36953C62.1347 6.5975 62.1347 3.72861 60.4387 1.95659C58.745 0.184556 55.9969 0.184556 54.3009 1.95659Z" fill="#774181"/>
<path d="M54.3009 18.3023L1.27201 73.708C-0.424002 75.4801 -0.424002 78.349 1.27201 80.121C2.96802 81.893 5.71382 81.893 7.40983 80.121L60.4387 24.7152C62.1347 22.9432 62.1347 20.0743 60.4387 18.3023C58.745 16.5303 55.9969 16.5303 54.3009 18.3023Z" fill="#774181"/>
<path d="M54.3009 34.6484L1.27201 90.0541C-0.424002 91.8261 -0.424002 94.695 1.27201 96.4671C2.96802 98.2391 5.71382 98.2391 7.40983 96.4671L60.4387 41.0613C62.1347 39.2893 62.1347 36.4204 60.4387 34.6484C58.745 32.8763 55.9969 32.8763 54.3009 34.6484Z" fill="#774181"/>
</svg>
